<?xml version="1.0" encoding="utf-8"?>
<!-- Generator: Adobe Illustrator 16.0.0, SVG Export Plug-In . SVG Version: 6.00 Build 0)  -->
<!DOCTYPE svg PUBLIC "-//W3C//DTD SVG 1.1//EN" "http://www.w3.org/Graphics/SVG/1.1/DTD/svg11.dtd">
<svg version="1.1" id="Layer_1" xmlns="http://www.w3.org/2000/svg" xmlns:xlink="http://www.w3.org/1999/xlink" x="0px" y="0px"
	 width="841.89px" height="595.28px" viewBox="0 0 841.89 595.28" enable-background="new 0 0 841.89 595.28" xml:space="preserve">
<g>
	<text transform="matrix(1 0 0 1 46.0791 194.3569)"><tspan x="0" y="0" fill="#009BDB" font-family="'VAGRoundedBT-Regular'" font-size="18.8382" letter-spacing="3">FOTO</tspan><tspan x="59.566" y="0" fill="#002075" font-family="'VAGRoundedBT-Regular'" font-size="18.8382" letter-spacing="3">JORNALISMO EXPERIMENTAL</tspan></text>
	<path fill="#009BDB" d="M90.509,29.382v23.437H77.756c-3.789,0-6.203,1.034-7.41,3.102c-0.862,1.381-1.206,3.793-1.206,7.065
		v10.684h21.713l-2.586,23.609H69.141v68.07H41.051v-68.07H27.265V73.669h13.786V59.54c0-14.476,4.996-23.781,14.818-27.745
		c4.827-1.896,8.963-2.413,13.271-2.413H90.509z"/>
	<path fill="#009BDB" d="M275.026,165.694h-6.722c-20.161,0-42.393,1.723-42.393-32.226c0-0.516-0.172-9.822-0.172-18.783V97.108
		h-13.787V73.499h13.787v-22.92L254,45.754v27.745h21.54l-2.928,23.609H254v26.193V97.108v32.57c0,6.03,0,10.683,6.204,12.577
		c4.997,2.242,13.957,2.762,14.821,2.762V165.694z"/>
	<path fill="#009BDB" d="M367.216,111.239v15.853v0.517h-51.527v2.755c0,6.205,1.896,9.998,5.688,11.376
		c2.582,0.689,5.514,1.207,10.168,1.207h2.24c9.822,0,20.16-1.033,31.018-3.274h0.172v23.094c0,0.343-4.824,1.202-14.473,2.757
		c-6.033,0.686-13.1,1.033-20.854,1.033c-20.16,0-33.26-6.894-39.119-20.508c-2.238-5.516-3.273-11.202-3.273-16.887v-22.059
		c0-16.201,6.723-26.885,20.336-32.227c6.373-2.067,12.578-2.928,19.299-2.928c18.955,0,31.363,6.203,37.051,18.611
		C366.181,95.556,367.216,102.449,367.216,111.239z M334.646,95.556c-2.068-1.377-4.652-2.066-7.584-2.066
		c-8.098,0-11.373,3.619-11.373,10.684v4.308h23.094v-1.549C338.783,100.553,337.402,96.763,334.646,95.556z"/>
	<path fill="#009BDB" d="M448.896,76.083v22.922c-10.166-1.896-20.162-3.104-25.848-3.104c-6.723,0-11.202,1.208-13.442,3.447
		c-1.898,1.205-2.932,6.03-2.932,14.475v11.719c0,7.754,0.863,12.236,2.586,13.613c2.07,2.584,6.549,3.964,13.27,3.964h2.068
		c4.996,0,12.922-1.206,24.127-3.276h0.17v22.75c0,0.516-4.996,1.549-15.164,3.101c-3.961,0.515-8.617,0.862-13.958,0.862
		c-19.473,0-32.227-7.068-38.258-21.195c-2.07-4.483-3.102-12.064-3.102-22.921v-6.204c0-13.098,1.725-22.058,5.17-26.883
		c6.721-11.374,18.781-17.062,36.189-17.062C429.08,72.292,438.73,73.499,448.896,76.083z"/>
	<g>
		<path fill="#002075" d="M193.316,67.331h-83.137c-8.036,0-14.548,9.027-14.548,20.166v60.065c0,11.14,6.512,20.169,14.548,20.169
			h83.137c8.037,0,14.55-9.029,14.55-20.169V87.497C207.866,76.357,201.353,67.331,193.316,67.331z M151.824,164.172
			c-25.14,0-45.519-20.38-45.519-45.519c0-25.143,20.379-45.521,45.519-45.521c25.143,0,45.522,20.378,45.522,45.521
			C197.346,143.792,176.967,164.172,151.824,164.172z"/>
		<path fill-rule="evenodd" clip-rule="evenodd" fill="#009BDB" d="M153.644,113.307c7.626,4.618,13.38,10.281,17.086,17.078
			c3.694,6.779,5.339,14.667,4.763,23.761c1.151-0.777,2.259-1.608,3.33-2.491c1.554-1.285,3.011-2.671,4.35-4.135
			c6.941-7.595,11.176-17.707,11.176-28.815c0-0.477-0.002-0.872-0.011-1.191c-0.009-0.212-0.013-0.43-0.022-0.656
			c-7.477-3.875-14.735-6.272-21.729-6.869C166.038,109.43,159.711,110.45,153.644,113.307L153.644,113.307z M131.499,106.813
			c-3.583-6.789-5.098-14.396-4.669-22.894c-4.241,3.026-7.906,6.812-10.797,11.153c-0.636,0.957-1.232,1.933-1.779,2.923
			c-3.41,6.132-5.351,13.194-5.351,20.706h0.003v0.004c0,0.441,0.003,0.797,0.01,1.053c0.004,0.178,0.01,0.37,0.017,0.566
			c7.178,4.572,14.094,7.032,20.889,7.622c6.364,0.552,12.637-0.529,18.927-3.048C140.824,119.677,135.114,113.675,131.499,106.813
			L131.499,106.813z M130.663,129.941c7.752,0.135,15.921-1.874,24.431-5.659c-0.811,6.273-3.143,11.966-6.985,17.083
			c-4.118,5.476-9.979,10.308-17.588,14.495c-1.6-0.913-3.144-1.931-4.618-3.046c-1.594-1.202-3.099-2.515-4.497-3.913
			c-6.78-6.786-11.288-15.834-12.292-25.917C115.829,127.606,123.035,129.807,130.663,129.941L130.663,129.941z M157.427,118.22
			c5.773,4.775,10.199,10.078,13.005,16.019c2.962,6.27,4.124,13.265,3.161,21.118c-2.617,1.569-5.408,2.869-8.339,3.852
			c-0.576,0.195-1.178,0.381-1.813,0.566c-3.756,1.077-7.716,1.658-11.802,1.658v-0.002h-0.009c-5.375,0-10.517-0.996-15.251-2.805
			c-0.926-0.354-1.834-0.742-2.719-1.149c-0.346-0.161-0.686-0.324-1.03-0.498c6.923-3.641,12.697-8.44,16.953-14.731
			C153.897,135.867,156.643,127.972,157.427,118.22L157.427,118.22z M152.224,93.946c-4.072,6.638-6.446,15.084-6.828,25.657
			c-5.219-3.661-9.293-8.306-12.118-14.083c-3.035-6.201-4.652-13.723-4.746-22.757c0.811-0.522,1.645-1.021,2.496-1.488
			c0.994-0.551,2.013-1.062,3.055-1.531c5.352-2.415,11.291-3.761,17.547-3.761h0.01v-0.001c3.362,0,6.635,0.391,9.788,1.134
			c0.56,0.129,1.067,0.26,1.524,0.385c1.931,0.531,3.809,1.194,5.624,1.979C161.718,82.773,156.178,87.498,152.224,93.946
			L152.224,93.946z M147.647,113.553c0.539-7.271,2.779-13.521,6.521-18.861c3.964-5.653,9.628-10.31,16.765-14.104
			c9.458,4.804,16.896,13.023,20.674,23.035c0.749,1.976,1.354,4.027,1.802,6.131c0.339,1.59,0.591,3.21,0.747,4.853
			c-8.585-4.468-16.749-6.604-24.529-6.671C161.929,107.87,154.62,109.828,147.647,113.553z"/>
		<polygon fill="#002075" points="124.44,69.26 134.346,60.332 167.905,60.332 176.243,69.26 		"/>
	</g>
	<g>
		<text transform="matrix(1 0 0 1 350.5156 58.1782)" fill="#002075" font-family="'VAGRoundedBT-Regular'" font-size="26.6402">Agencia</text>
		<g>
			<path fill="#002075" d="M390.716,37.969h1.264l2.412,2.813h-1.178l-1.861-1.861l-1.869,1.861h-1.18L390.716,37.969z"/>
		</g>
	</g>
</g>
<text transform="matrix(1 0 0 1 505.6191 185.5957)" fill="#211915" font-family="'VAGRoundedBT-Regular'" font-size="12.3952" letter-spacing="2">FOTOJORNALISMO EXPERIMENTAL</text>
<path fill="#211915" d="M534.854,77.045v15.421h-8.391c-2.493,0-4.082,0.68-4.876,2.041c-0.567,0.909-0.793,2.496-0.793,4.649v7.03
	h14.287l-1.701,15.534h-12.586v44.788h-18.482V121.72h-9.07v-15.534h9.07v-9.297c0-9.525,3.287-15.648,9.75-18.256
	c3.176-1.248,5.897-1.588,8.732-1.588H534.854z"/>
<path fill="#211915" d="M656.263,166.735h-4.423c-13.266,0-27.894,1.134-27.894-21.203c0-0.34-0.113-6.463-0.113-12.359v-11.565
	h-9.071v-15.534h9.071V90.992l18.596-3.175v18.256h14.173l-1.927,15.534h-12.246v17.234v-17.234v21.432c0,3.967,0,7.028,4.082,8.274
	c3.288,1.476,9.184,1.817,9.752,1.817V166.735z"/>
<path fill="#211915" d="M716.923,130.905v10.431v0.341h-33.904v1.812c0,4.083,1.248,6.578,3.742,7.485
	c1.699,0.453,3.628,0.794,6.69,0.794h1.474c6.463,0,13.266-0.68,20.409-2.154h0.113v15.195c0,0.226-3.175,0.791-9.522,1.813
	c-3.97,0.451-8.62,0.68-13.722,0.68c-13.265,0-21.885-4.535-25.739-13.493c-1.473-3.629-2.154-7.371-2.154-11.111v-14.515
	c0-10.659,4.424-17.689,13.381-21.204c4.193-1.36,8.276-1.927,12.698-1.927c12.472,0,20.637,4.082,24.379,12.246
	C716.241,120.586,716.923,125.122,716.923,130.905z M695.492,120.586c-1.361-0.906-3.062-1.359-4.99-1.359
	c-5.328,0-7.483,2.381-7.483,7.029v2.835h15.195v-1.02C698.214,123.874,697.305,121.381,695.492,120.586z"/>
<path fill="#211915" d="M770.666,107.773v15.082c-6.688-1.248-13.267-2.042-17.007-2.042c-4.424,0-7.37,0.794-8.845,2.268
	c-1.249,0.793-1.929,3.968-1.929,9.524v7.711c0,5.103,0.568,8.052,1.701,8.958c1.362,1.7,4.31,2.607,8.731,2.607h1.361
	c3.287,0,8.502-0.793,15.875-2.155h0.111v14.969c0,0.34-3.287,1.02-9.978,2.04c-2.606,0.339-5.67,0.567-9.184,0.567
	c-12.812,0-21.204-4.65-25.173-13.945c-1.362-2.95-2.041-7.938-2.041-15.082v-4.082c0-8.618,1.135-14.514,3.402-17.688
	c4.422-7.483,12.357-11.226,23.812-11.226C757.627,105.279,763.978,106.073,770.666,107.773z"/>
<g>
	<path fill="#211915" d="M602.499,102.015h-54.703c-5.287,0-9.571,5.939-9.571,13.269v39.522c0,7.329,4.284,13.271,9.571,13.271
		h54.703c5.288,0,9.573-5.941,9.573-13.271v-39.522C612.072,107.954,607.787,102.015,602.499,102.015z M575.198,165.734
		c-16.542,0-29.95-13.409-29.95-29.95c0-16.544,13.408-29.953,29.95-29.953c16.544,0,29.953,13.409,29.953,29.953
		C605.151,152.325,591.742,165.734,575.198,165.734z"/>
	<path fill-rule="evenodd" clip-rule="evenodd" fill="#211915" d="M576.396,132.267c5.018,3.038,8.804,6.765,11.242,11.236
		c2.431,4.461,3.514,9.651,3.134,15.635c0.757-0.512,1.487-1.059,2.191-1.64c1.022-0.846,1.98-1.757,2.862-2.721
		c4.567-4.997,7.354-11.65,7.354-18.959c0-0.313-0.002-0.574-0.008-0.784c-0.006-0.14-0.008-0.283-0.015-0.432
		c-4.919-2.55-9.696-4.127-14.298-4.52C584.551,129.715,580.388,130.386,576.396,132.267L576.396,132.267z M561.824,127.993
		c-2.356-4.467-3.354-9.473-3.072-15.063c-2.79,1.991-5.201,4.482-7.104,7.339c-0.419,0.63-0.811,1.271-1.171,1.923
		c-2.244,4.035-3.521,8.682-3.521,13.624h0.002v0.003c0,0.29,0.002,0.524,0.007,0.692c0.003,0.117,0.007,0.243,0.011,0.372
		c4.723,3.009,9.273,4.627,13.744,5.016c4.188,0.363,8.315-0.349,12.454-2.006C567.96,136.458,564.203,132.508,561.824,127.993
		L561.824,127.993z M561.274,143.211c5.102,0.089,10.477-1.232,16.075-3.723c-0.533,4.127-2.067,7.873-4.597,11.239
		c-2.709,3.603-6.565,6.782-11.572,9.538c-1.053-0.602-2.068-1.271-3.038-2.005c-1.049-0.791-2.039-1.654-2.958-2.574
		c-4.462-4.466-7.428-10.419-8.088-17.053C551.514,141.675,556.255,143.123,561.274,143.211L561.274,143.211z M578.885,135.499
		c3.799,3.142,6.711,6.631,8.558,10.54c1.948,4.125,2.713,8.728,2.079,13.896c-1.723,1.032-3.559,1.888-5.487,2.534
		c-0.378,0.128-0.774,0.25-1.193,0.372c-2.471,0.709-5.076,1.092-7.765,1.092v-0.002h-0.006c-3.537,0-6.92-0.655-10.035-1.845
		c-0.609-0.233-1.207-0.488-1.789-0.757c-0.228-0.105-0.451-0.213-0.678-0.327c4.556-2.396,8.354-5.554,11.155-9.693
		C576.562,147.11,578.369,141.916,578.885,135.499L578.885,135.499z M575.461,119.527c-2.68,4.367-4.241,9.925-4.493,16.882
		c-3.434-2.409-6.114-5.466-7.973-9.267c-1.997-4.08-3.062-9.029-3.123-14.974c0.533-0.344,1.082-0.671,1.643-0.979
		c0.653-0.362,1.324-0.698,2.01-1.007c3.521-1.589,7.43-2.475,11.546-2.475h0.006v0c2.213,0,4.366,0.257,6.44,0.746
		c0.368,0.085,0.703,0.171,1.004,0.253c1.271,0.349,2.506,0.786,3.699,1.303C581.708,112.176,578.063,115.284,575.461,119.527
		L575.461,119.527z M572.45,132.428c0.354-4.784,1.828-8.896,4.291-12.41c2.608-3.72,6.335-6.783,11.031-9.28
		c6.223,3.161,11.117,8.569,13.603,15.157c0.492,1.3,0.892,2.649,1.187,4.034c0.223,1.047,0.388,2.112,0.491,3.193
		c-5.649-2.94-11.021-4.345-16.14-4.39C581.847,128.688,577.038,129.978,572.45,132.428z"/>
	<polygon fill="#211915" points="557.18,103.284 563.698,97.41 585.779,97.41 591.266,103.284 	"/>
</g>
<g>
	<path fill="#211915" d="M820.283,547.771h-24.318c-2.35,0-4.255,2.64-4.255,5.898v17.569c0,3.258,1.905,5.899,4.255,5.899h24.318
		c2.351,0,4.256-2.642,4.256-5.899v-17.569C824.539,550.41,822.634,547.771,820.283,547.771z M808.146,576.097
		c-7.354,0-13.313-5.961-13.313-13.314c0-7.354,5.96-13.315,13.313-13.315c7.354,0,13.315,5.961,13.315,13.315
		C821.462,570.136,815.501,576.097,808.146,576.097z"/>
	<path fill-rule="evenodd" clip-rule="evenodd" fill="#211915" d="M808.679,561.219c2.23,1.351,3.914,3.007,4.998,4.995
		c1.08,1.983,1.562,4.29,1.394,6.95c0.336-0.228,0.661-0.471,0.974-0.729c0.455-0.376,0.881-0.781,1.272-1.21
		c2.03-2.222,3.269-5.179,3.269-8.428c0-0.14,0-0.256-0.003-0.349c-0.003-0.062-0.004-0.126-0.007-0.192
		c-2.187-1.133-4.311-1.834-6.355-2.009C812.305,560.084,810.454,560.383,808.679,561.219L808.679,561.219z M802.201,559.319
		c-1.047-1.986-1.49-4.212-1.365-6.697c-1.24,0.886-2.312,1.993-3.158,3.263c-0.187,0.28-0.36,0.565-0.521,0.855
		c-0.997,1.793-1.564,3.859-1.564,6.056l0,0v0.002c0,0.129,0.001,0.232,0.004,0.308c0.001,0.052,0.003,0.108,0.004,0.165
		c2.1,1.338,4.123,2.058,6.11,2.229c1.862,0.162,3.696-0.154,5.536-0.892C804.929,563.082,803.259,561.326,802.201,559.319
		L802.201,559.319z M801.957,566.084c2.268,0.039,4.657-0.548,7.146-1.655c-0.237,1.835-0.919,3.5-2.044,4.997
		c-1.204,1.602-2.918,3.015-5.145,4.24c-0.468-0.268-0.919-0.565-1.351-0.892c-0.466-0.352-0.906-0.735-1.314-1.145
		c-1.983-1.985-3.302-4.632-3.596-7.581C797.618,565.401,799.726,566.045,801.957,566.084L801.957,566.084z M809.786,562.655
		c1.688,1.397,2.982,2.948,3.804,4.686c0.866,1.834,1.206,3.88,0.925,6.178c-0.767,0.459-1.582,0.839-2.439,1.126
		c-0.168,0.058-0.345,0.111-0.531,0.166c-1.098,0.314-2.256,0.485-3.451,0.485v-0.001h-0.003c-1.572,0-3.076-0.291-4.461-0.82
		c-0.271-0.104-0.536-0.217-0.795-0.336c-0.102-0.047-0.201-0.095-0.302-0.146c2.025-1.065,3.714-2.469,4.959-4.31
		C808.753,567.817,809.557,565.508,809.786,562.655L809.786,562.655z M808.264,555.556c-1.191,1.941-1.886,4.412-1.997,7.505
		c-1.526-1.071-2.719-2.43-3.545-4.12c-0.888-1.813-1.36-4.014-1.388-6.656c0.236-0.152,0.48-0.298,0.729-0.436
		c0.291-0.161,0.589-0.311,0.894-0.448c1.565-0.706,3.303-1.1,5.133-1.1h0.003l0,0c0.983,0,1.94,0.114,2.863,0.332
		c0.163,0.037,0.312,0.075,0.446,0.112c0.564,0.155,1.113,0.35,1.644,0.579C811.041,552.287,809.421,553.669,808.264,555.556
		L808.264,555.556z M806.925,561.29c0.158-2.127,0.813-3.955,1.908-5.517c1.159-1.653,2.816-3.016,4.903-4.125
		c2.767,1.404,4.942,3.809,6.047,6.737c0.22,0.578,0.396,1.178,0.528,1.794c0.099,0.465,0.172,0.938,0.218,1.419
		c-2.512-1.307-4.899-1.931-7.175-1.951C811.103,559.628,808.965,560.201,806.925,561.29z"/>
	<polygon fill="#211915" points="800.137,548.334 803.034,545.724 812.851,545.724 815.29,548.334 	"/>
</g>
<g>
	<text transform="matrix(1 0 0 1 705.9336 95.9922)" fill="#211915" font-family="'VAGRoundedBT-Regular'" font-size="17.5288">Agencia</text>
	<g>
		<path fill="#211915" d="M732.385,82.695h0.832l1.587,1.852h-0.775l-1.225-1.225l-1.229,1.225h-0.776L732.385,82.695z"/>
	</g>
</g>
<g>
	<rect x="425.072" y="258.487" fill="#009BDB" width="292.396" height="123.364"/>
	
		<text transform="matrix(1 0 0 1 446.3613 369.623)" fill="#FFFFFF" font-family="'VAGRoundedBT-Regular'" font-size="11.955" letter-spacing="2">FOTOJORNALISMO EXPERIMENTAL</text>
	<path fill="#FFFFFF" d="M474.556,264.927V279.8h-8.093c-2.403,0-3.936,0.656-4.701,1.968c-0.548,0.876-0.765,2.407-0.765,4.483
		v6.781h13.779l-1.642,14.982h-12.138v43.197H443.17v-43.197h-8.749v-14.982h8.749v-8.967c0-9.187,3.17-15.092,9.404-17.608
		c3.063-1.203,5.688-1.531,8.423-1.531H474.556z"/>
	<path fill="#FFFFFF" d="M591.653,351.433h-4.266c-12.794,0-26.902,1.093-26.902-20.451c0-0.326-0.109-6.233-0.109-11.921v-11.153
		h-8.749v-14.982h8.749v-14.545l17.935-3.062v17.608h13.67l-1.857,14.982h-11.812v16.623v-16.623v20.671
		c0,3.825,0,6.778,3.938,7.979c3.172,1.423,8.857,1.752,9.405,1.752V351.433z"/>
	<path fill="#FFFFFF" d="M650.159,316.874v10.061v0.329H617.46v1.748c0,3.938,1.203,6.345,3.609,7.219
		c1.638,0.438,3.498,0.767,6.452,0.767h1.421c6.234,0,12.795-0.655,19.685-2.079h0.108v14.655c0,0.219-3.062,0.764-9.184,1.751
		c-3.828,0.436-8.312,0.655-13.234,0.655c-12.793,0-21.107-4.374-24.825-13.014c-1.42-3.501-2.077-7.11-2.077-10.717V314.25
		c0-10.281,4.267-17.062,12.905-20.451c4.044-1.312,7.982-1.858,12.247-1.858c12.029,0,19.904,3.937,23.513,11.81
		C649.502,306.922,650.159,311.297,650.159,316.874z M629.489,306.922c-1.312-0.874-2.952-1.311-4.813-1.311
		c-5.138,0-7.216,2.296-7.216,6.779v2.733h14.655v-0.983C632.115,310.094,631.239,307.688,629.489,306.922z"/>
	<path fill="#FFFFFF" d="M701.994,294.564v14.547c-6.452-1.204-12.796-1.971-16.404-1.971c-4.265,0-7.107,0.767-8.529,2.188
		c-1.204,0.766-1.86,3.828-1.86,9.188v7.436c0,4.922,0.548,7.766,1.641,8.64c1.313,1.64,4.156,2.516,8.421,2.516h1.312
		c3.171,0,8.201-0.765,15.312-2.079h0.108v14.438c0,0.327-3.171,0.983-9.623,1.968c-2.515,0.327-5.469,0.547-8.858,0.547
		c-12.357,0-20.451-4.485-24.278-13.45c-1.314-2.846-1.968-7.656-1.968-14.546v-3.938c0-8.312,1.094-13.997,3.28-17.059
		c4.266-7.219,11.919-10.828,22.966-10.828C689.419,292.158,695.542,292.925,701.994,294.564z"/>
	<g>
		<path fill="#FFFFFF" d="M539.8,289.009h-52.76c-5.1,0-9.233,5.729-9.233,12.798v38.118c0,7.069,4.134,12.801,9.233,12.801h52.76
			c5.101,0,9.232-5.731,9.232-12.801v-38.118C549.032,294.738,544.9,289.009,539.8,289.009z M513.469,350.467
			c-15.955,0-28.888-12.933-28.888-28.887c0-15.957,12.933-28.889,28.888-28.889s28.888,12.932,28.888,28.889
			C542.356,337.534,529.424,350.467,513.469,350.467z"/>
		<path fill-rule="evenodd" clip-rule="evenodd" fill="#FFFFFF" d="M514.624,318.188c4.839,2.93,8.491,6.525,10.843,10.837
			c2.343,4.303,3.387,9.309,3.022,15.079c0.729-0.493,1.434-1.021,2.112-1.581c0.986-0.815,1.911-1.693,2.761-2.624
			c4.405-4.818,7.092-11.237,7.092-18.286c0-0.302-0.001-0.553-0.007-0.756c-0.006-0.134-0.009-0.272-0.015-0.416
			c-4.743-2.46-9.351-3.98-13.789-4.36C522.488,315.727,518.474,316.374,514.624,318.188L514.624,318.188z M500.57,314.066
			c-2.274-4.309-3.235-9.137-2.964-14.529c-2.691,1.92-5.018,4.324-6.853,7.078c-0.403,0.607-0.781,1.227-1.128,1.854
			c-2.165,3.893-3.397,8.374-3.397,13.14h0.003v0.003c0,0.28,0.002,0.506,0.007,0.669c0.003,0.113,0.007,0.234,0.011,0.359
			c4.556,2.9,8.944,4.462,13.256,4.837c4.039,0.35,8.02-0.336,12.012-1.935C506.487,322.229,502.863,318.421,500.57,314.066
			L500.57,314.066z M500.04,328.743c4.919,0.086,10.103-1.188,15.503-3.591c-0.515,3.98-1.994,7.595-4.433,10.841
			c-2.613,3.476-6.334,6.54-11.162,9.197c-1.016-0.578-1.994-1.224-2.93-1.932c-1.012-0.764-1.968-1.596-2.854-2.484
			c-4.303-4.305-7.163-10.048-7.8-16.445C490.625,327.262,495.198,328.657,500.04,328.743L500.04,328.743z M517.023,321.305
			c3.664,3.031,6.473,6.396,8.254,10.166c1.879,3.978,2.616,8.417,2.005,13.401c-1.66,0.996-3.432,1.821-5.292,2.444
			c-0.365,0.124-0.747,0.243-1.149,0.36c-2.385,0.684-4.897,1.053-7.491,1.053v-0.003h-0.004c-3.413,0-6.675-0.631-9.68-1.779
			c-0.587-0.225-1.163-0.472-1.726-0.729c-0.22-0.103-0.436-0.205-0.653-0.316c4.393-2.31,8.058-5.355,10.759-9.349
			C514.783,332.504,516.526,327.494,517.023,321.305L517.023,321.305z M513.722,305.9c-2.585,4.213-4.091,9.572-4.334,16.281
			c-3.312-2.322-5.896-5.271-7.689-8.938c-1.926-3.934-2.952-8.709-3.012-14.441c0.515-0.33,1.044-0.647,1.584-0.943
			c0.631-0.35,1.277-0.674,1.938-0.973c3.396-1.531,7.165-2.386,11.137-2.386h0.006V294.5c2.133,0,4.211,0.248,6.211,0.72
			c0.354,0.082,0.677,0.165,0.968,0.244c1.226,0.337,2.417,0.758,3.567,1.256C519.747,298.809,516.231,301.808,513.722,305.9
			L513.722,305.9z M510.817,318.342c0.342-4.613,1.764-8.578,4.139-11.968c2.517-3.589,6.111-6.543,10.64-8.951
			c6.002,3.049,10.722,8.266,13.12,14.618c0.475,1.254,0.859,2.556,1.144,3.892c0.215,1.009,0.375,2.036,0.475,3.081
			c-5.45-2.836-10.629-4.191-15.567-4.234C519.881,314.737,515.242,315.979,510.817,318.342z"/>
		<polygon fill="#FFFFFF" points="496.091,290.233 502.377,284.568 523.673,284.568 528.965,290.233 		"/>
	</g>
	<g>
		<text transform="matrix(1 0 0 1 639.5615 283.2007)" fill="#FFFFFF" font-family="'VAGRoundedBT-Regular'" font-size="16.9062">Agencia</text>
		<g>
			<path fill="#FFFFFF" d="M665.072,270.375h0.802l1.531,1.787h-0.748l-1.181-1.182l-1.187,1.182h-0.748L665.072,270.375z"/>
		</g>
	</g>
</g>
<rect x="97.034" y="257.551" fill="#001D7E" width="292.396" height="123.364"/>
<text transform="matrix(1 0 0 1 118.3232 368.6875)" fill="#FFFFFF" font-family="'VAGRoundedBT-Regular'" font-size="11.955" letter-spacing="2">FOTOJORNALISMO EXPERIMENTAL</text>
<path fill="#FFFFFF" d="M146.518,263.991v14.874h-8.093c-2.403,0-3.936,0.656-4.701,1.968c-0.548,0.876-0.765,2.407-0.765,4.483
	v6.78h13.779l-1.642,14.982h-12.138v43.198h-17.827v-43.198h-8.749v-14.982h8.749v-8.966c0-9.187,3.17-15.092,9.404-17.608
	c3.063-1.203,5.688-1.531,8.423-1.531H146.518z"/>
<path fill="#FFFFFF" d="M263.615,350.497h-4.266c-12.794,0-26.902,1.093-26.902-20.451c0-0.326-0.109-6.233-0.109-11.92v-11.154
	h-8.749v-14.982h8.749v-14.545l17.935-3.062v17.608h13.67l-1.857,14.982h-11.812v16.623v-16.623v20.671c0,3.825,0,6.778,3.938,7.979
	c3.172,1.423,8.857,1.752,9.405,1.752V350.497z"/>
<path fill="#FFFFFF" d="M322.121,315.938v10.061v0.329h-32.699v1.748c0,3.938,1.203,6.345,3.609,7.219
	c1.638,0.438,3.498,0.767,6.452,0.767h1.421c6.234,0,12.795-0.655,19.685-2.079h0.108v14.655c0,0.219-3.062,0.764-9.184,1.751
	c-3.828,0.436-8.312,0.655-13.234,0.655c-12.793,0-21.107-4.374-24.825-13.014c-1.42-3.501-2.077-7.11-2.077-10.717v-13.999
	c0-10.281,4.267-17.062,12.905-20.451c4.044-1.312,7.982-1.858,12.247-1.858c12.029,0,19.904,3.937,23.513,11.811
	C321.464,305.986,322.121,310.36,322.121,315.938z M301.451,305.986c-1.312-0.874-2.952-1.312-4.813-1.312
	c-5.138,0-7.216,2.297-7.216,6.78v2.733h14.655v-0.983C304.077,309.157,303.201,306.753,301.451,305.986z"/>
<path fill="#FFFFFF" d="M373.956,293.63v14.546c-6.452-1.204-12.796-1.97-16.404-1.97c-4.265,0-7.107,0.766-8.529,2.187
	c-1.204,0.765-1.86,3.827-1.86,9.187v7.437c0,4.922,0.548,7.766,1.641,8.64c1.313,1.64,4.156,2.516,8.421,2.516h1.312
	c3.171,0,8.201-0.765,15.312-2.079h0.108v14.438c0,0.327-3.171,0.983-9.623,1.968c-2.515,0.327-5.469,0.547-8.858,0.547
	c-12.357,0-20.451-4.485-24.278-13.45c-1.314-2.846-1.968-7.656-1.968-14.546v-3.938c0-8.312,1.094-13.998,3.28-17.061
	c4.266-7.217,11.919-10.828,22.966-10.828C361.381,291.222,367.504,291.989,373.956,293.63z"/>
<path fill="#FFFFFF" d="M211.762,288.074h-52.76c-5.1,0-9.233,5.728-9.233,12.798v38.118c0,7.069,4.134,12.801,9.233,12.801h52.76
	c5.101,0,9.232-5.731,9.232-12.801v-38.118C220.994,293.802,216.862,288.074,211.762,288.074z M185.431,349.531
	c-15.955,0-28.888-12.933-28.888-28.886c0-15.957,12.933-28.891,28.888-28.891s28.888,12.934,28.888,28.891
	C214.318,336.599,201.386,349.531,185.431,349.531z"/>
<path fill-rule="evenodd" clip-rule="evenodd" fill="#FFFFFF" d="M186.586,317.251c4.839,2.931,8.491,6.525,10.843,10.838
	c2.343,4.303,3.387,9.309,3.022,15.079c0.729-0.493,1.434-1.021,2.112-1.581c0.986-0.815,1.911-1.693,2.761-2.624
	c4.405-4.818,7.092-11.237,7.092-18.286c0-0.303-0.001-0.553-0.007-0.756c-0.006-0.135-0.009-0.272-0.015-0.416
	c-4.743-2.46-9.351-3.98-13.789-4.359C194.45,314.791,190.436,315.438,186.586,317.251L186.586,317.251z M172.532,313.131
	c-2.274-4.309-3.235-9.137-2.964-14.53c-2.691,1.92-5.018,4.324-6.853,7.078c-0.403,0.608-0.781,1.229-1.128,1.855
	c-2.165,3.893-3.397,8.374-3.397,13.141h0.003v0.002c0,0.281,0.002,0.506,0.007,0.668c0.003,0.113,0.007,0.235,0.011,0.359
	c4.556,2.9,8.944,4.463,13.256,4.838c4.039,0.35,8.02-0.336,12.012-1.936C178.449,321.294,174.825,317.485,172.532,313.131
	L172.532,313.131z M172.002,327.808c4.919,0.086,10.103-1.188,15.503-3.59c-0.515,3.979-1.994,7.594-4.433,10.84
	c-2.613,3.476-6.334,6.54-11.162,9.197c-1.016-0.578-1.994-1.224-2.93-1.932c-1.012-0.764-1.968-1.596-2.854-2.484
	c-4.303-4.305-7.163-10.048-7.8-16.445C162.587,326.326,167.16,327.722,172.002,327.808L172.002,327.808z M188.985,320.37
	c3.664,3.029,6.473,6.396,8.254,10.165c1.879,3.978,2.616,8.417,2.005,13.401c-1.66,0.996-3.432,1.821-5.292,2.444
	c-0.365,0.124-0.747,0.243-1.149,0.36c-2.385,0.684-4.897,1.053-7.491,1.053v-0.003h-0.004c-3.413,0-6.675-0.631-9.68-1.779
	c-0.587-0.225-1.163-0.472-1.726-0.729c-0.22-0.103-0.436-0.205-0.653-0.316c4.393-2.31,8.058-5.355,10.759-9.349
	C186.745,331.568,188.488,326.559,188.985,320.37L188.985,320.37z M185.684,304.965c-2.585,4.213-4.091,9.572-4.334,16.282
	c-3.312-2.322-5.896-5.271-7.689-8.938c-1.926-3.935-2.952-8.709-3.012-14.441c0.515-0.331,1.044-0.648,1.584-0.945
	c0.631-0.349,1.277-0.674,1.938-0.971c3.396-1.533,7.165-2.387,11.137-2.387h0.006v-0.001c2.133,0,4.211,0.248,6.211,0.72
	c0.354,0.082,0.677,0.164,0.968,0.244c1.226,0.336,2.417,0.758,3.567,1.256C191.709,297.874,188.193,300.872,185.684,304.965
	L185.684,304.965z M182.779,317.407c0.342-4.613,1.764-8.58,4.139-11.969c2.517-3.588,6.111-6.543,10.64-8.951
	c6.002,3.049,10.722,8.266,13.12,14.619c0.475,1.253,0.859,2.555,1.144,3.891c0.215,1.01,0.375,2.037,0.475,3.08
	c-5.45-2.836-10.629-4.191-15.567-4.234C191.843,313.802,187.204,315.044,182.779,317.407z"/>
<polygon fill="#FFFFFF" points="168.053,289.298 174.339,283.632 195.635,283.632 200.927,289.298 "/>
<text transform="matrix(1 0 0 1 311.5234 282.2651)" fill="#FFFFFF" font-family="'VAGRoundedBT-Regular'" font-size="16.9062">Agencia</text>
<g>
	<path fill="#FFFFFF" d="M337.034,269.44h0.802l1.531,1.787h-0.748l-1.181-1.182l-1.187,1.182h-0.748L337.034,269.44z"/>
</g>
<rect x="97.034" y="407.084" fill="#211915" width="292.396" height="123.363"/>
<text transform="matrix(1 0 0 1 118.3232 518.2207)" fill="#FFFFFF" font-family="'VAGRoundedBT-Regular'" font-size="11.955" letter-spacing="2">FOTOJORNALISMO EXPERIMENTAL</text>
<path fill="#FFFFFF" d="M146.518,413.523v14.874h-8.093c-2.403,0-3.936,0.656-4.701,1.968c-0.548,0.877-0.765,2.408-0.765,4.484
	v6.78h13.779l-1.642,14.982h-12.138v43.198h-17.827v-43.198h-8.749V441.63h8.749v-8.967c0-9.187,3.17-15.092,9.404-17.608
	c3.063-1.203,5.688-1.531,8.423-1.531H146.518z"/>
<path fill="#FFFFFF" d="M263.615,500.029h-4.266c-12.794,0-26.902,1.094-26.902-20.451c0-0.326-0.109-6.232-0.109-11.92v-11.154
	h-8.749v-14.982h8.749v-14.545l17.935-3.062v17.607h13.67l-1.857,14.982h-11.812v16.623v-16.623v20.672c0,3.824,0,6.777,3.938,7.979
	c3.172,1.424,8.857,1.752,9.405,1.752V500.029z"/>
<path fill="#FFFFFF" d="M322.121,465.471v10.061v0.33h-32.699v1.748c0,3.938,1.203,6.344,3.609,7.219
	c1.638,0.438,3.498,0.766,6.452,0.766h1.421c6.234,0,12.795-0.654,19.685-2.078h0.108v14.654c0,0.219-3.062,0.764-9.184,1.752
	c-3.828,0.436-8.312,0.654-13.234,0.654c-12.793,0-21.107-4.373-24.825-13.014c-1.42-3.5-2.077-7.109-2.077-10.717v-13.998
	c0-10.281,4.267-17.062,12.905-20.451c4.044-1.312,7.982-1.859,12.247-1.859c12.029,0,19.904,3.938,23.513,11.811
	C321.464,455.52,322.121,459.894,322.121,465.471z M301.451,455.52c-1.312-0.875-2.952-1.312-4.813-1.312
	c-5.138,0-7.216,2.296-7.216,6.78v2.732h14.655v-0.982C304.077,458.69,303.201,456.285,301.451,455.52z"/>
<path fill="#FFFFFF" d="M373.956,443.162v14.547c-6.452-1.205-12.796-1.971-16.404-1.971c-4.265,0-7.107,0.766-8.529,2.188
	c-1.204,0.765-1.86,3.827-1.86,9.187v7.437c0,4.922,0.548,7.766,1.641,8.639c1.313,1.641,4.156,2.516,8.421,2.516h1.312
	c3.171,0,8.201-0.764,15.312-2.078h0.108v14.438c0,0.326-3.171,0.982-9.623,1.967c-2.515,0.328-5.469,0.547-8.858,0.547
	c-12.357,0-20.451-4.484-24.278-13.449c-1.314-2.846-1.968-7.656-1.968-14.547v-3.938c0-8.312,1.094-13.998,3.28-17.06
	c4.266-7.218,11.919-10.828,22.966-10.828C361.381,440.755,367.504,441.521,373.956,443.162z"/>
<path fill="#FFFFFF" d="M211.762,437.606h-52.76c-5.1,0-9.233,5.729-9.233,12.798v38.119c0,7.068,4.134,12.801,9.233,12.801h52.76
	c5.101,0,9.232-5.732,9.232-12.801v-38.119C220.994,443.335,216.862,437.606,211.762,437.606z M185.431,499.064
	c-15.955,0-28.888-12.934-28.888-28.887c0-15.957,12.933-28.89,28.888-28.89s28.888,12.933,28.888,28.89
	C214.318,486.131,201.386,499.064,185.431,499.064z"/>
<path fill-rule="evenodd" clip-rule="evenodd" fill="#FFFFFF" d="M186.586,466.784c4.839,2.931,8.491,6.525,10.843,10.837
	c2.343,4.303,3.387,9.309,3.022,15.08c0.729-0.494,1.434-1.021,2.112-1.582c0.986-0.814,1.911-1.693,2.761-2.623
	c4.405-4.818,7.092-11.238,7.092-18.287c0-0.302-0.001-0.553-0.007-0.756c-0.006-0.134-0.009-0.271-0.015-0.416
	c-4.743-2.459-9.351-3.98-13.789-4.359C194.45,464.324,190.436,464.971,186.586,466.784L186.586,466.784z M172.532,462.664
	c-2.274-4.309-3.235-9.137-2.964-14.53c-2.691,1.92-5.018,4.324-6.853,7.078c-0.403,0.608-0.781,1.228-1.128,1.854
	c-2.165,3.893-3.397,8.375-3.397,13.141h0.003v0.002c0,0.281,0.002,0.506,0.007,0.669c0.003,0.113,0.007,0.235,0.011,0.359
	c4.556,2.9,8.944,4.462,13.256,4.837c4.039,0.35,8.02-0.336,12.012-1.935C178.449,470.826,174.825,467.018,172.532,462.664
	L172.532,462.664z M172.002,477.34c4.919,0.086,10.103-1.188,15.503-3.59c-0.515,3.98-1.994,7.594-4.433,10.84
	c-2.613,3.477-6.334,6.541-11.162,9.197c-1.016-0.578-1.994-1.223-2.93-1.932c-1.012-0.764-1.968-1.596-2.854-2.484
	c-4.303-4.305-7.163-10.047-7.8-16.445C162.587,475.859,167.16,477.254,172.002,477.34L172.002,477.34z M188.985,469.902
	c3.664,3.03,6.473,6.396,8.254,10.166c1.879,3.977,2.616,8.416,2.005,13.4c-1.66,0.996-3.432,1.822-5.292,2.445
	c-0.365,0.123-0.747,0.242-1.149,0.359c-2.385,0.684-4.897,1.053-7.491,1.053v-0.002h-0.004c-3.413,0-6.675-0.631-9.68-1.779
	c-0.587-0.225-1.163-0.473-1.726-0.73c-0.22-0.102-0.436-0.205-0.653-0.316c4.393-2.309,8.058-5.355,10.759-9.348
	C186.745,481.102,188.488,476.092,188.985,469.902L188.985,469.902z M185.684,454.498c-2.585,4.213-4.091,9.572-4.334,16.281
	c-3.312-2.322-5.896-5.271-7.689-8.938c-1.926-3.934-2.952-8.709-3.012-14.441c0.515-0.33,1.044-0.648,1.584-0.944
	c0.631-0.349,1.277-0.674,1.938-0.972c3.396-1.532,7.165-2.387,11.137-2.387h0.006l0,0c2.133,0,4.211,0.248,6.211,0.719
	c0.354,0.082,0.677,0.165,0.968,0.244c1.226,0.337,2.417,0.758,3.567,1.256C191.709,447.406,188.193,450.404,185.684,454.498
	L185.684,454.498z M182.779,466.939c0.342-4.613,1.764-8.579,4.139-11.969c2.517-3.588,6.111-6.543,10.64-8.951
	c6.002,3.049,10.722,8.266,13.12,14.619c0.475,1.254,0.859,2.555,1.144,3.891c0.215,1.01,0.375,2.037,0.475,3.081
	c-5.45-2.836-10.629-4.191-15.567-4.234C191.843,463.334,187.204,464.576,182.779,466.939z"/>
<polygon fill="#FFFFFF" points="168.053,438.83 174.339,433.165 195.635,433.165 200.927,438.83 "/>
<text transform="matrix(1 0 0 1 311.5234 431.7979)" fill="#FFFFFF" font-family="'VAGRoundedBT-Regular'" font-size="16.9062">Agencia</text>
<g>
	<path fill="#FFFFFF" d="M337.034,418.973h0.802l1.531,1.787h-0.748l-1.181-1.182l-1.187,1.182h-0.748L337.034,418.973z"/>
</g>
<rect x="426.94" y="408.954" fill="#009BDB" width="292.396" height="123.363"/>
<text transform="matrix(1 0 0 1 463.1826 529.4355)" fill="#4A72B2" font-family="'VAGRoundedBT-Regular'" font-size="11.955" letter-spacing="2">FOTOJORNALISMO EXPERIMENTAL</text>
<path fill="#4A72B2" d="M476.424,415.394v14.874h-8.093c-2.403,0-3.936,0.656-4.701,1.968c-0.548,0.877-0.765,2.408-0.765,4.484
	v6.78h13.779l-1.642,14.982h-12.138v43.198h-17.827v-43.198h-8.749V443.5h8.749v-8.967c0-9.187,3.17-15.092,9.404-17.608
	c3.063-1.203,5.688-1.531,8.423-1.531H476.424z"/>
<path fill="#4A72B2" d="M593.521,501.899h-4.266c-12.794,0-26.902,1.094-26.902-20.451c0-0.326-0.109-6.232-0.109-11.92v-11.154
	h-8.749v-14.982h8.749v-14.545l17.935-3.062v17.607h13.67l-1.857,14.982h-11.812v16.623v-16.623v20.672c0,3.824,0,6.777,3.938,7.979
	c3.172,1.424,8.857,1.752,9.405,1.752V501.899z"/>
<path fill="#4A72B2" d="M652.027,467.341v10.061v0.33h-32.699v1.748c0,3.938,1.203,6.344,3.609,7.219
	c1.638,0.438,3.498,0.766,6.452,0.766h1.421c6.234,0,12.795-0.654,19.685-2.078h0.108v14.654c0,0.219-3.062,0.764-9.184,1.752
	c-3.828,0.436-8.312,0.654-13.234,0.654c-12.793,0-21.107-4.373-24.825-13.014c-1.42-3.5-2.077-7.109-2.077-10.717v-13.998
	c0-10.281,4.267-17.062,12.905-20.451c4.044-1.312,7.982-1.859,12.247-1.859c12.029,0,19.904,3.938,23.513,11.811
	C651.37,457.39,652.027,461.764,652.027,467.341z M631.357,457.39c-1.312-0.875-2.952-1.312-4.813-1.312
	c-5.138,0-7.216,2.296-7.216,6.78v2.732h14.655v-0.982C633.983,460.561,633.107,458.155,631.357,457.39z"/>
<path fill="#4A72B2" d="M703.862,445.032v14.547c-6.452-1.205-12.796-1.971-16.404-1.971c-4.265,0-7.107,0.766-8.529,2.188
	c-1.204,0.765-1.86,3.827-1.86,9.187v7.437c0,4.922,0.548,7.766,1.641,8.639c1.313,1.641,4.156,2.516,8.421,2.516h1.312
	c3.171,0,8.201-0.764,15.312-2.078h0.108v14.438c0,0.326-3.171,0.982-9.623,1.967c-2.515,0.328-5.469,0.547-8.858,0.547
	c-12.357,0-20.451-4.484-24.278-13.449c-1.314-2.846-1.968-7.656-1.968-14.547v-3.938c0-8.312,1.094-13.998,3.28-17.06
	c4.266-7.218,11.919-10.828,22.966-10.828C691.287,442.625,697.41,443.392,703.862,445.032z"/>
<path fill="#4A72B2" d="M541.668,439.477h-52.76c-5.1,0-9.233,5.729-9.233,12.798v38.119c0,7.068,4.134,12.801,9.233,12.801h52.76
	c5.101,0,9.232-5.732,9.232-12.801v-38.119C550.9,445.205,546.769,439.477,541.668,439.477z M515.337,500.935
	c-15.955,0-28.888-12.934-28.888-28.887c0-15.957,12.933-28.89,28.888-28.89s28.888,12.933,28.888,28.89
	C544.225,488.001,531.292,500.935,515.337,500.935z"/>
<path fill-rule="evenodd" clip-rule="evenodd" fill="#4A72B2" d="M516.492,468.654c4.839,2.931,8.491,6.525,10.843,10.837
	c2.343,4.303,3.387,9.309,3.022,15.08c0.729-0.494,1.434-1.021,2.112-1.582c0.986-0.814,1.911-1.693,2.761-2.623
	c4.405-4.818,7.092-11.238,7.092-18.287c0-0.302-0.001-0.553-0.007-0.756c-0.006-0.134-0.009-0.271-0.015-0.416
	c-4.743-2.459-9.351-3.98-13.789-4.359C524.356,466.194,520.342,466.841,516.492,468.654L516.492,468.654z M502.438,464.534
	c-2.274-4.309-3.235-9.137-2.964-14.53c-2.691,1.92-5.018,4.324-6.853,7.078c-0.403,0.608-0.781,1.228-1.128,1.854
	c-2.165,3.893-3.397,8.375-3.397,13.141h0.003v0.002c0,0.281,0.002,0.506,0.007,0.669c0.003,0.113,0.007,0.235,0.011,0.359
	c4.556,2.9,8.944,4.462,13.256,4.837c4.039,0.35,8.02-0.336,12.012-1.935C508.355,472.696,504.731,468.888,502.438,464.534
	L502.438,464.534z M501.908,479.21c4.919,0.086,10.103-1.188,15.503-3.59c-0.515,3.98-1.994,7.594-4.433,10.84
	c-2.613,3.477-6.334,6.541-11.162,9.197c-1.016-0.578-1.994-1.223-2.93-1.932c-1.012-0.764-1.968-1.596-2.854-2.484
	c-4.303-4.305-7.163-10.047-7.8-16.445C492.493,477.729,497.066,479.124,501.908,479.21L501.908,479.21z M518.892,471.772
	c3.664,3.03,6.473,6.396,8.254,10.166c1.879,3.977,2.616,8.416,2.005,13.4c-1.66,0.996-3.432,1.822-5.292,2.445
	c-0.365,0.123-0.747,0.242-1.149,0.359c-2.385,0.684-4.897,1.053-7.491,1.053v-0.002h-0.004c-3.413,0-6.675-0.631-9.68-1.779
	c-0.587-0.225-1.163-0.473-1.726-0.73c-0.22-0.102-0.436-0.205-0.653-0.316c4.393-2.309,8.058-5.355,10.759-9.348
	C516.651,482.972,518.395,477.962,518.892,471.772L518.892,471.772z M515.59,456.368c-2.585,4.213-4.091,9.572-4.334,16.281
	c-3.312-2.322-5.896-5.271-7.689-8.938c-1.926-3.934-2.952-8.709-3.012-14.441c0.515-0.33,1.044-0.648,1.584-0.944
	c0.631-0.349,1.277-0.674,1.938-0.972c3.396-1.532,7.165-2.387,11.137-2.387h0.006l0,0c2.133,0,4.211,0.248,6.211,0.719
	c0.354,0.082,0.677,0.165,0.968,0.244c1.226,0.337,2.417,0.758,3.567,1.256C521.615,449.276,518.1,452.274,515.59,456.368
	L515.59,456.368z M512.686,468.81c0.342-4.613,1.764-8.579,4.139-11.969c2.517-3.588,6.111-6.543,10.64-8.951
	c6.002,3.049,10.722,8.266,13.12,14.619c0.475,1.254,0.859,2.555,1.144,3.891c0.215,1.01,0.375,2.037,0.475,3.081
	c-5.45-2.836-10.629-4.191-15.567-4.234C521.749,465.204,517.11,466.446,512.686,468.81z"/>
<polygon fill="#4A72B2" points="497.959,440.7 504.245,435.035 525.541,435.035 530.833,440.7 "/>
<text transform="matrix(1 0 0 1 641.4297 433.668)" fill="#4A72B2" font-family="'VAGRoundedBT-Regular'" font-size="16.9062">Agencia</text>
<g>
	<path fill="#4A72B2" d="M666.94,420.843h0.802l1.531,1.787h-0.748l-1.181-1.182l-1.187,1.182h-0.748L666.94,420.843z"/>
</g>
<line fill="none" stroke="#BF0411" stroke-miterlimit="10" x1="420.271" y1="407.085" x2="729.617" y2="534.188"/>
<line fill="none" stroke="#BF0411" stroke-miterlimit="10" x1="418.402" y1="541.664" x2="723.075" y2="405.216"/>
</svg>
